<?xml version="1.0" standalone="no"?>
<!DOCTYPE svg PUBLIC "-//W3C//DTD SVG 20010904//EN"
 "http://www.w3.org/TR/2001/REC-SVG-20010904/DTD/svg10.dtd">
<svg version="1.0" xmlns="http://www.w3.org/2000/svg"
 width="866.000000pt" height="866.000000pt" viewBox="0 0 866.000000 866.000000"
 preserveAspectRatio="xMidYMid meet">
<metadata>
Created by potrace 1.11, written by Peter Selinger 2001-2013
</metadata>
<g transform="translate(0.000000,866.000000) scale(0.100000,-0.100000)"
fill="#000000" stroke="none">
<path d="M1746 8653 c-1 -1 -40 -3 -88 -4 -47 -1 -112 -6 -144 -10 -33 -5 -74
-12 -93 -14 -168 -25 -411 -118 -586 -223 -178 -107 -385 -300 -507 -472 -108
-152 -228 -411 -263 -565 -2 -11 -9 -40 -15 -65 -37 -149 -37 -186 -37 -2991
-1 -1658 3 -2758 9 -2790 8 -47 31 -172 44 -236 16 -84 107 -300 184 -440 38
-69 172 -243 246 -319 277 -287 665 -474 1058 -511 94 -9 5458 -9 5562 0 71 6
114 13 203 31 295 62 602 230 829 454 276 273 433 587 499 997 4 28 8 1310 8
2850 l0 2800 -27 126 c-65 300 -198 571 -385 786 -132 151 -235 237 -428 358
-119 75 -375 175 -505 198 -33 6 -88 16 -125 22 -16 3 -64 8 -106 11 -65 6
-5327 12 -5333 7z"/>
</g>
</svg>
