<svg xmlns="http://www.w3.org/2000/svg" viewBox="0 0 69.74 187.67"><defs><style>.cls-1,.cls-8{fill:#be1e2d;}.cls-1,.cls-2,.cls-3{stroke:#231f20;}.cls-1,.cls-2,.cls-3,.cls-7{stroke-miterlimit:10;}.cls-1,.cls-2,.cls-7{stroke-width:0.5px;}.cls-2,.cls-3,.cls-4,.cls-7{fill:#fff;}.cls-3{stroke-width:0.25px;}.cls-5{fill:none;}.cls-6,.cls-9{fill:#231f20;}.cls-7{stroke:#be1e2d;}.cls-8{font-size:12px;}.cls-8,.cls-9{font-family:Silom, Silom;}.cls-9{font-size:6px;}.cls-10{fill:#ed2224;}</style></defs><title>logo</title><g id="Layer_1" data-name="Layer 1"><path id="Grip" class="cls-1" d="M18.33,71.44h0l.29.05,14.39,4a1.71,1.71,0,0,0,.84,0L51,71.55l.19,0,.9-.1L52.19,50s.28-.32-1.44-2.32a5.25,5.25,0,0,0-3.92-1.8s-24.54,0-25.93,0a4.22,4.22,0,0,0-2.44.94,1.63,1.63,0,0,0-.32.33l-.68.93a1.71,1.71,0,0,0-.33.89l-.35,5s0,.08,0,.12V69.74A1.71,1.71,0,0,0,18.33,71.44Z" transform="translate(0.25 -0.75)"/><path id="Body" class="cls-2" d="M18.48,71.45a169.84,169.84,0,0,0,32.6.08c0,.31,0,.58,0,.85,0,.9.27,1.56,1.35,1.52a2.91,2.91,0,0,1,.82.18c2.52.68,3.43,2.21,2.83,4.79-.16.69-.44,1.36-.66,2,1.49,1,3,2.09,4.47,3.12a19.66,19.66,0,0,1,7.23,10,39.39,39.39,0,0,1,2.12,13.45q0,35.15-.22,70.3a27.67,27.67,0,0,1-.69,5.7c-.73,3.36-2.78,4.88-6.21,4.67-13.1-.8-26.2-1.28-39.32-.94-4.9.12-9.79.48-14.68.68a19.67,19.67,0,0,1-3.69-.18A3.82,3.82,0,0,1,1,184.35a70.34,70.34,0,0,1-.67-8.7C.17,164.82.15,154,.11,143.14c0-12.27-.18-24.55-.07-36.82a33.27,33.27,0,0,1,3.6-15.39,19.22,19.22,0,0,1,9.08-8.74c1.05-.49,1.42-1,.83-2.07a5,5,0,0,1-.4-1.5c-.48-2.64.42-3.89,3.1-4.33C18.45,73.93,18.45,73.93,18.48,71.45ZM58,119.21c-.41,0-.68,0-1,0q-23,0-45.92,0c-.83,0-1,.33-1,1.07,0,4,0,8.07,0,12.1q0,15.22.07,30.44c0,1.46,0,2.92,0,4.37H58Zm-5.07-37c-11.71.86-23.42,1.2-35.13,0A62.5,62.5,0,0,0,52.9,82.24ZM21.53,75.58c8.44,1.93,16.87,1.6,25.31.16A195.82,195.82,0,0,1,21.53,75.58Z" transform="translate(0.25 -0.75)"/><path id="Cap" class="cls-2" d="M34.78,46.8c-3.51-.19-7.12-.34-10.72-.59-1.17-.08-2.38-.2-2.92-1.63A3.34,3.34,0,0,1,21.82,41a4,4,0,0,0,.84-2c.57-6.6.87-13.24,1.66-19.81.72-6.06,3.8-11.13,8-15.48.48-.5,1.6-.39,2.43-.52a2.93,2.93,0,0,1,2.92,1.32,28.32,28.32,0,0,1,6.48,16.69c.45,6.14,1,12.27,1.49,18.4a3.09,3.09,0,0,0,.75,1.54,4.42,4.42,0,0,1,1.34,3.22c-.07,1-.43,1.53-1.5,1.59C42.44,46.24,38.67,46.53,34.78,46.8Zm7.09-5.73v-.31H26.46A51.23,51.23,0,0,0,41.87,41.07Z" transform="translate(0.25 -0.75)"/><path id="Grip2" class="cls-3" d="M30.83,61c0,2.64,0,5.27,0,7.91,0,1.28-.85,2.05-1.85,1.61a1.94,1.94,0,0,1-1-1.38c-.08-5.43-.06-10.86-.06-16.28,0-1,.48-1.6,1.52-1.56s1.4.7,1.4,1.69c0,2.67,0,5.35,0,8Z" transform="translate(0.25 -0.75)"/><path id="Grip3" class="cls-3" d="M42.94,61c0,2.63,0,5.27,0,7.9,0,1-.29,1.64-1.38,1.68s-1.52-.46-1.52-1.67q0-8,0-15.92c0-1.19.51-1.74,1.5-1.7S43,52,42.95,53C42.93,55.64,42.94,58.31,42.94,61Z" transform="translate(0.25 -0.75)"/><path id="Grip4" class="cls-3" d="M48.88,60q0-3.78,0-7.55A3.21,3.21,0,0,1,49,51.22c.13-.32.54-.77.76-.74a1.26,1.26,0,0,1,.88.75,12.58,12.58,0,0,1,.12,2.38q0,6.95,0,13.9A5.21,5.21,0,0,1,50.58,69c-.09.28-.49.67-.69.64A1.33,1.33,0,0,1,49,69a2.75,2.75,0,0,1-.12-1.17c0-2.64,0-5.27,0-7.91Z" transform="translate(0.25 -0.75)"/><path id="Grip1" class="cls-3" d="M20.41,59.56q0,4,0,8a1.72,1.72,0,0,1-.07.82,2.06,2.06,0,0,1-.83.89c-.37-.07-.69-.53-.83-.88a3.64,3.64,0,0,1-.08-1.3c0-5.11-.14-15,0-15.68.08-.53.57-1.34.94-1.39.84-.11.89.73.9,1.37,0,2.72,0,5.43,0,8.15Z" transform="translate(0.25 -0.75)"/><path id="CapWhite" class="cls-4" d="M49.07,48.54c-9.68,1.37-19.39,1.74-29.08-.07,4.86.19,9.73.53,14.59.54S44.23,48.71,49.07,48.54Z" transform="translate(0.25 -0.75)"/><path id="CapLeft" class="cls-5" d="M16.79,71.29q0-1.77,0-3.54c0-5.55,0-11.1,0-16.66,0-1.5.11-3,1.47-4.12a7.55,7.55,0,0,0-1.27,5c0,6.07,0,12.14,0,18.21,0,.38,0,.77.06,1.15Z" transform="translate(0.25 -0.75)"/><path id="CapRight" class="cls-3" d="M52.19,50c.74,4.33.52,21,0,21.39C52.43,64.36,52.35,57.18,52.19,50Z" transform="translate(0.25 -0.75)"/><path id="Nozzle" class="cls-1" d="M33.15,3.37c-.08-1.46.37-2.26,1.3-2.36s1.55.67,1.69,2.36Z" transform="translate(0.25 -0.75)"/><path id="ShadowBottom2" class="cls-6" d="M52.9,82.24a62.5,62.5,0,0,1-35.13,0C29.48,83.44,41.19,83.1,52.9,82.24Z" transform="translate(0.25 -0.75)"/><path id="ShadowBottom" class="cls-6" d="M21.53,75.58a195.82,195.82,0,0,0,25.31.16C38.4,77.18,30,77.51,21.53,75.58Z" transform="translate(0.25 -0.75)"/><path id="ShadowTop" class="cls-6" d="M41.87,41.07a51.23,51.23,0,0,1-15.41-.31H41.87Z" transform="translate(0.25 -0.75)"/><path id="Label" class="cls-7" d="M60.87,116.3v53.81H7.28V116.3Z" transform="translate(0.25 -0.75)"/><text class="cls-8" transform="translate(18.06 140.23)">Nano<tspan x="2.5" y="14.4">glue</tspan></text><text class="cls-9" transform="translate(15.33 106.13)">Swiss made</text><rect class="cls-10" x="29.37" y="89.56" width="9.92" height="9.92"/><rect class="cls-4" x="31.23" y="93.58" width="6.2" height="1.86"/><rect class="cls-4" x="33.4" y="91.42" width="1.86" height="6.2"/></g></svg>