<?xml version="1.0" encoding="utf-8"?>
<!-- Generator: Adobe Illustrator 20.1.0, SVG Export Plug-In . SVG Version: 6.00 Build 0)  -->
<svg version="1.1" xmlns="http://www.w3.org/2000/svg" xmlns:xlink="http://www.w3.org/1999/xlink" x="0px" y="0px"
	 viewBox="0 0 69.2 188.2" style="enable-background:new 0 0 69.2 188.2;" xml:space="preserve">
<style type="text/css">
	.st0{fill:#BE1E2D;stroke:#000000;stroke-width:0.5;stroke-miterlimit:10;}
	.st1{fill:#FFFFFF;stroke:#000000;stroke-width:0.5;stroke-miterlimit:10;}
	.st2{fill:#FFFFFF;stroke:#000000;stroke-width:0.25;stroke-miterlimit:10;}
	.st3{fill:#FFFFFF;}
	.st4{fill:none;}
	.st5{fill:#FFFFFF;stroke:#BE1E2D;stroke-width:0.5;stroke-miterlimit:10;}
	.st6{fill:#BE1E2D;}
	.st7{font-family:'Impact';}
	.st8{font-size:16px;}
	.st9{font-size:6px;}
</style>
<g id="Layer_2">
</g>
<g id="Layer_1">
	<g>
		<path id="Grip" class="st0" d="M18.3,71.4L18.3,71.4c0.1,0,0.2,0,0.3,0.1l14.4,4c0.3,0.1,0.6,0.1,0.8,0L51,71.6c0.1,0,0.1,0,0.2,0
			l0.9-0.1L52.2,50c0,0,0.3-0.3-1.4-2.3c-1.6-1.9-3.9-1.8-3.9-1.8s-24.5,0-25.9,0c-1.1,0-2,0.6-2.4,0.9c-0.1,0.1-0.2,0.2-0.3,0.3
			l-0.7,0.9c-0.2,0.3-0.3,0.6-0.3,0.9l-0.3,5c0,0,0,0.1,0,0.1v15.7C16.8,70.6,17.5,71.4,18.3,71.4z"/>
		<path id="Body" class="st1" d="M18.5,71.5c10.9,1.1,21.7,1.1,32.6,0.1c0,0.3,0,0.6,0,0.9c0,0.9,0.3,1.6,1.4,1.5
			c0.3,0,0.5,0.1,0.8,0.2c2.5,0.7,3.4,2.2,2.8,4.8c-0.2,0.7-0.4,1.4-0.7,2c1.5,1,3,2.1,4.5,3.1c3.6,2.5,5.8,6,7.2,10
			c1.6,4.3,2.1,8.9,2.1,13.4c0,23.4-0.1,46.9-0.2,70.3c0,1.9-0.3,3.8-0.7,5.7c-0.7,3.4-2.8,4.9-6.2,4.7c-13.1-0.8-26.2-1.3-39.3-0.9
			c-4.9,0.1-9.8,0.5-14.7,0.7c-1.2,0-2.5,0-3.7-0.2c-1.9-0.3-3.2-1.5-3.5-3.3c-0.4-2.9-0.6-5.8-0.7-8.7c-0.1-10.8-0.1-21.7-0.2-32.5
			c0-12.3-0.2-24.5-0.1-36.8c0.1-5.3,1.1-10.6,3.6-15.4c2.1-3.9,5.1-6.9,9.1-8.7c1.1-0.5,1.4-1,0.8-2.1c-0.2-0.4-0.3-1-0.4-1.5
			c-0.5-2.6,0.4-3.9,3.1-4.3C18.5,73.9,18.5,73.9,18.5,71.5z M58,119.2c-0.4,0-0.7,0-1,0c-15.3,0-30.6,0-45.9,0c-0.8,0-1,0.3-1,1.1
			c0,4,0,8.1,0,12.1c0,10.1,0,20.3,0.1,30.4c0,1.5,0,2.9,0,4.4c16.1,0,31.9,0,47.8,0C58,151.1,58,135.2,58,119.2z M52.9,82.2
			c-11.7,0.9-23.4,1.2-35.1,0C29.5,85.7,41.2,85.5,52.9,82.2z M21.5,75.6c8.4,1.9,16.9,1.6,25.3,0.2C38.4,76.1,29.9,76.3,21.5,75.6z
			"/>
		<path id="Cap" class="st1" d="M34.8,46.8c-3.5-0.2-7.1-0.3-10.7-0.6c-1.2-0.1-2.4-0.2-2.9-1.6c-0.5-1.4-0.2-2.4,0.7-3.5
			c0.4-0.5,0.8-1.3,0.8-2c0.6-6.6,0.9-13.2,1.7-19.8c0.7-6.1,3.8-11.1,8-15.5c0.5-0.5,1.6-0.4,2.4-0.5C36,3,36.8,3.6,37.7,4.6
			c4.1,4.8,6,10.5,6.5,16.7c0.4,6.1,1,12.3,1.5,18.4c0,0.5,0.4,1.1,0.8,1.5c0.8,1,1.4,1.9,1.3,3.2c-0.1,1-0.4,1.5-1.5,1.6
			C42.4,46.2,38.7,46.5,34.8,46.8z M41.9,41.1c0-0.1,0-0.2,0-0.3c-5.1,0-10.3,0-15.4,0C31.6,41.6,36.7,41.8,41.9,41.1z"/>
		<path id="Grip2" class="st2" d="M30.8,61c0,2.6,0,5.3,0,7.9c0,1.3-0.8,2.1-1.9,1.6c-0.5-0.2-1-0.9-1-1.4
			c-0.1-5.4-0.1-10.9-0.1-16.3c0-1,0.5-1.6,1.5-1.6c1.1,0,1.4,0.7,1.4,1.7C30.8,55.7,30.8,58.4,30.8,61C30.8,61,30.8,61,30.8,61z"/>
		<path id="Grip3" class="st2" d="M42.9,61c0,2.6,0,5.3,0,7.9c0,1-0.3,1.6-1.4,1.7c-1,0-1.5-0.5-1.5-1.7c0-5.3,0-10.6,0-15.9
			c0-1.2,0.5-1.7,1.5-1.7c1.1,0,1.4,0.7,1.4,1.7C42.9,55.6,42.9,58.3,42.9,61z"/>
		<path id="Grip4" class="st2" d="M48.9,60c0-2.5,0-5,0-7.6c0-0.4-0.1-0.8,0.1-1.2c0.1-0.3,0.5-0.8,0.8-0.7c0.3,0.1,0.8,0.4,0.9,0.7
			c0.2,0.8,0.1,1.6,0.1,2.4c0,4.6,0,9.3,0,13.9c0,0.5,0,1.1-0.2,1.5c-0.1,0.3-0.5,0.7-0.7,0.6c-0.3,0-0.7-0.3-0.9-0.6
			c-0.2-0.3-0.1-0.8-0.1-1.2C48.9,65.2,48.9,62.6,48.9,60C48.9,60,48.9,60,48.9,60z"/>
		<path id="Grip1" class="st2" d="M20.4,59.6c0,2.7,0,5.4,0,8c0,0.3,0.1,0.6-0.1,0.8c-0.2,0.3-0.5,0.7-0.8,0.9
			c-0.4-0.1-0.7-0.5-0.8-0.9c-0.2-0.4-0.1-0.9-0.1-1.3c0-5.1-0.1-15,0-15.7c0.1-0.5,0.6-1.3,0.9-1.4c0.8-0.1,0.9,0.7,0.9,1.4
			C20.4,54.1,20.4,56.8,20.4,59.6C20.4,59.6,20.4,59.6,20.4,59.6z"/>
		<path id="CapWhite" class="st3" d="M49.1,48.5c-9.7,1.4-19.4,1.7-29.1-0.1c4.9,0.2,9.7,0.5,14.6,0.5C39.4,49,44.2,48.7,49.1,48.5z
			"/>
		<path id="CapLeft" class="st4" d="M16.8,71.3c0-1.2,0-2.4,0-3.5c0-5.6,0-11.1,0-16.7c0-1.5,0.1-3,1.5-4.1c-1.2,1.5-1.3,3.2-1.3,5
			c0,6.1,0,12.1,0,18.2c0,0.4,0,0.8,0.1,1.1C17,71.3,16.9,71.3,16.8,71.3z"/>
		<path id="CapRight" class="st2" d="M52.2,50c0.7,4.3,0.5,21,0,21.4C52.4,64.4,52.3,57.2,52.2,50z"/>
		<path id="Nozzle" class="st0" d="M33.2,3.4c-0.1-1.5,0.4-2.3,1.3-2.4c1-0.1,1.6,0.7,1.7,2.4C35.2,3.4,34.2,3.4,33.2,3.4z"/>
		<path id="ShadowBottom2" d="M52.9,82.2c-11.7,3.2-23.4,3.4-35.1,0C29.5,83.4,41.2,83.1,52.9,82.2z"/>
		<path id="ShadowBottom" d="M21.5,75.6c8.4,0.7,16.9,0.6,25.3,0.2C38.4,77.2,30,77.5,21.5,75.6z"/>
		<path id="ShadowTop" d="M41.9,41.1c-5.2,0.7-10.3,0.5-15.4-0.3c5.1,0,10.3,0,15.4,0C41.9,40.9,41.9,41,41.9,41.1z"/>
		<path id="Label" class="st5" d="M60.9,116.3c0,18,0,35.8,0,53.8c-17.8,0-35.6,0-53.6,0c0-17.9,0-35.8,0-53.8
			C25.1,116.3,42.9,116.3,60.9,116.3z"/>
	</g>
	<text id="Nano_glue" transform="matrix(1 0 0 1 17.6755 138.9798)"><tspan x="0" y="0" class="st6 st7 st8">Nano</tspan><tspan x="2" y="19.2" class="st6 st7 st8">glue</tspan></text>
	<text id="Nano_glue_1_" transform="matrix(1 0 0 1 19.4246 106.8842)" class="st7 st9">Swiss made</text>
	<g>
		<rect x="29.1" y="90.3" class="st6" width="9.9" height="9.9"/>
		<rect x="31" y="94.3" class="st3" width="6.2" height="1.9"/>
		<rect x="33.1" y="92.2" class="st3" width="1.9" height="6.2"/>
	</g>
</g>
</svg>
